<svg width="30" height="30" viewBox="0 0 30 30" fill="none" xmlns="http://www.w3.org/2000/svg">
<path d="M14.2361 18.3713C14.4377 18.6369 14.7091 18.7834 15.0003 18.7834C15.2916 18.7834 15.563 18.6369 15.7635 18.3726L21.3137 11.3484C21.5197 11.0766 21.5769 10.8137 21.4748 10.608C21.3727 10.4023 21.1287 10.2891 20.7877 10.2891H18.6631C18.085 10.2891 17.6146 9.81892 17.6146 9.24072V2.55822C17.6146 1.87718 17.0608 1.32312 16.3799 1.32312H13.6209C12.94 1.32312 12.3861 1.87718 12.3861 2.55822V9.24078C12.3861 9.81898 11.9157 10.2891 11.3375 10.2891H9.21293C8.87209 10.2891 8.62816 10.4024 8.52597 10.6081C8.42384 10.8137 8.48103 11.0766 8.68828 11.3498L14.2361 18.3713Z" fill="currentColor"/>
<path d="M29.9961 21.1033L27.1812 11.7201H23.7775L22.1227 14.7016H24.2464L26.0566 21.0368H3.94336L5.7535 14.7016H7.87729L6.22248 11.7201H2.81877L0 21.1301V27.186C0 28.0081 0.66873 28.6768 1.49068 28.6768H28.5093C29.3313 28.6768 30 28.008 30 27.186V23.9252L29.9961 21.1033Z" fill="currentColor"/>
</svg>
