<svg width="28" height="28" viewBox="0 0 28 28" fill="none" xmlns="http://www.w3.org/2000/svg">
<path d="M14 17.5C15.933 17.5 17.5 15.933 17.5 14C17.5 12.0669 15.933 10.5 14 10.5C12.9431 10.5 11.9957 10.9685 11.3539 11.7091C11.4534 11.6815 11.5583 11.6667 11.6667 11.6667C12.311 11.6667 12.8333 12.189 12.8333 12.8333C12.8333 13.4777 12.311 14 11.6667 14C11.1716 14 10.7486 13.6917 10.5791 13.2565C10.5273 13.4961 10.5 13.7448 10.5 14C10.5 15.933 12.0669 17.5 14 17.5Z" fill="currentColor"/>
<path fill-rule="evenodd" clip-rule="evenodd" d="M5.45877 12.3542C6.58386 10.6551 9.49299 7 14 7C18.5071 7 21.4161 10.6551 22.5413 12.3542L22.5912 12.4291C22.8373 12.7972 23.1659 13.2886 23.1659 14C23.1659 14.7114 22.8373 15.2028 22.5912 15.5709L22.5413 15.6458C21.4161 17.3449 18.5071 21 14 21C9.49299 21 6.58386 17.3449 5.45877 15.6458L5.40883 15.5709C5.16272 15.2028 4.83414 14.7114 4.83414 14C4.83414 13.2886 5.16272 12.7972 5.40883 12.4291L5.45877 12.3542ZM14 9.33333C13.5501 9.33333 13.1182 9.38571 12.7051 9.48026C13.1336 9.38604 13.5669 9.33333 14 9.33333ZM14 18.6667C16.5773 18.6667 18.6667 16.5773 18.6667 14C18.6667 11.4227 16.5773 9.33333 14 9.33333C11.4227 9.33333 9.33333 11.4227 9.33333 14C9.33333 16.5773 11.4227 18.6667 14 18.6667ZM14 18.6667C14.4499 18.6667 14.8818 18.6143 15.295 18.5197C14.8664 18.6139 14.4331 18.6667 14 18.6667Z" fill="currentColor"/>
</svg>
