<svg width="24" height="24" viewBox="0 0 24 24" fill="none" xmlns="http://www.w3.org/2000/svg">
<path fill-rule="evenodd" clip-rule="evenodd" d="M1 5.4C1 2.96995 2.96995 1 5.4 1H18.6C21.03 1 23 2.96995 23 5.4V18.6C23 21.03 21.03 23 18.6 23H5.4C2.96995 23 1 21.03 1 18.6V5.4ZM5.4 3.2C4.18497 3.2 3.2 4.18497 3.2 5.4V18.6C3.2 19.8151 4.18497 20.8 5.4 20.8H18.6C19.8151 20.8 20.8 19.8151 20.8 18.6V5.4C20.8 4.18497 19.8151 3.2 18.6 3.2H5.4ZM12 8.7C10.1774 8.7 8.7 10.1774 8.7 12C8.7 13.8226 10.1774 15.3 12 15.3C13.8226 15.3 15.3 13.8226 15.3 12C15.3 10.1774 13.8226 8.7 12 8.7ZM6.5 12C6.5 8.96244 8.96244 6.5 12 6.5C15.0375 6.5 17.5 8.96244 17.5 12C17.5 15.0375 15.0375 17.5 12 17.5C8.96244 17.5 6.5 15.0375 6.5 12ZM18.05 7.6C18.9612 7.6 19.7 6.86127 19.7 5.95C19.7 5.03873 18.9612 4.3 18.05 4.3C17.1388 4.3 16.4 5.03873 16.4 5.95C16.4 6.86127 17.1388 7.6 18.05 7.6Z" fill="currentColor"/>
</svg>
