<svg width="42" height="42" viewBox="0 0 42 42" fill="none" xmlns="http://www.w3.org/2000/svg">
<path d="M21 0C12.3021 0 5.25 7.05206 5.25 15.75C5.25 19.175 6.37284 22.3178 8.23922 24.8916C8.27269 24.9533 8.27794 25.0222 8.316 25.0812L18.816 40.8312C19.3029 41.5616 20.1233 42 21 42C21.8767 42 22.6971 41.5616 23.184 40.8312L33.684 25.0812C33.7227 25.0222 33.7273 24.9533 33.7608 24.8916C35.6272 22.3178 36.75 19.175 36.75 15.75C36.75 7.05206 29.6979 0 21 0ZM21 21C18.1007 21 15.75 18.6493 15.75 15.75C15.75 12.8507 18.1007 10.5 21 10.5C23.8993 10.5 26.25 12.8507 26.25 15.75C26.25 18.6493 23.8993 21 21 21Z" fill="currentColor"/>
</svg>
