<svg width="26" height="26" viewBox="0 0 26 26" fill="none" xmlns="http://www.w3.org/2000/svg">
<path d="M12.999 2.16699C15.3921 2.16699 17.3328 4.10691 17.333 6.5V6.75C17.333 7.3483 16.8473 7.83398 16.249 7.83398C15.6508 7.83381 15.166 7.34819 15.166 6.75V6.5C15.1658 5.30353 14.1956 4.33398 12.999 4.33398C11.8026 4.33416 10.8332 5.30364 10.833 6.5V8.98242C11.5195 8.77812 12.2462 8.66702 12.999 8.66699C17.1871 8.66699 20.5828 12.062 20.583 16.25C20.583 20.4382 17.1872 23.834 12.999 23.834C8.81102 23.8338 5.41602 20.4381 5.41602 16.25C5.41612 13.6598 6.71548 11.3738 8.69727 10.0059C8.67742 9.92386 8.66602 9.8381 8.66602 9.75V6.5C8.66619 4.10702 10.606 2.16717 12.999 2.16699ZM12.999 14.084C12.4008 14.0842 11.916 14.5688 11.916 15.167V17.334C11.9162 17.9321 12.401 18.4168 12.999 18.417C13.5972 18.417 14.0828 17.9322 14.083 17.334V15.167C14.083 14.5687 13.5973 14.084 12.999 14.084Z" fill="currentColor"/>
</svg>
