<svg width="150" height="150" viewBox="0 0 150 150" fill="none" xmlns="http://www.w3.org/2000/svg">
<circle cx="75" cy="75" r="75" fill="white"/>
<path fill-rule="evenodd" clip-rule="evenodd" d="M0 75C0 33.5786 33.5786 0 75 0C116.421 0 150 33.5786 150 75C150 116.421 116.421 150 75 150C33.5786 150 0 116.421 0 75ZM102.803 54.6967C105.732 57.6256 105.732 62.3745 102.803 65.3032L75.1822 92.9242C70.9395 97.167 64.0605 97.167 59.8176 92.9242L47.1967 80.3032C44.2678 77.3745 44.2678 72.6255 47.1967 69.6967C50.1256 66.768 54.8743 66.768 57.8033 69.6967L67.5 79.3935L92.1967 54.6967C95.1255 51.7678 99.8745 51.7678 102.803 54.6967Z" fill="currentColor"/>
</svg>
