<svg width="24" height="24" viewBox="0 0 24 24" fill="none" xmlns="http://www.w3.org/2000/svg">
<path d="M3.34267 10.8316C9.50099 8.1224 17.4704 4.81931 18.5704 4.36214C21.456 3.16556 22.3414 3.39488 21.9 6.0448C21.5829 7.94943 20.6681 14.2552 19.939 18.1801C19.5063 20.5076 18.5356 20.7835 17.0093 19.7766C16.2752 19.2919 12.5704 16.8419 11.7663 16.2667C11.0322 15.7424 10.0199 15.1118 11.2895 13.8696C11.7413 13.4271 14.7028 10.5993 17.0102 8.39827C17.3126 8.10917 16.9328 7.63436 16.5839 7.86613C13.4739 9.92853 9.16191 12.7911 8.61311 13.164C7.78403 13.727 6.98778 13.9852 5.55845 13.5746C4.47849 13.2645 3.42352 12.8945 3.0129 12.7534C1.43167 12.2105 1.80701 11.5073 3.34267 10.8316Z" fill="currentColor"/>
</svg>
