<svg width="0" height="0" class="hidden">
  <symbol fill="none" xmlns="http://www.w3.org/2000/svg" viewBox="0 0 17 16" id="ic_arrow_hor">
    <path d="M0.292893 7.29289C-0.0976314 7.68342 -0.0976315 8.31658 0.292892 8.70711L6.65685 15.0711C7.04738 15.4616 7.68054 15.4616 8.07107 15.0711C8.46159 14.6805 8.46159 14.0474 8.07107 13.6569L2.41421 8L8.07107 2.34315C8.46159 1.95262 8.46159 1.31946 8.07107 0.928931C7.68054 0.538407 7.04738 0.538407 6.65686 0.928931L0.292893 7.29289ZM17 8L17 7L1 7L1 8L1 9L17 9L17 8Z" fill="currentColor"></path>
  </symbol>
  <symbol fill="none" xmlns="http://www.w3.org/2000/svg" viewBox="0 0 22 22" id="ic_close">
    <path d="M16.5 16.5L11 11M11 11L5.5 5.5M11 11L16.5 5.5M11 11L5.5 16.5" stroke="currentColor" stroke-width="2" stroke-linecap="round" stroke-linejoin="round"></path>
  </symbol>
  <symbol fill="none" xmlns="http://www.w3.org/2000/svg" viewBox="0 0 30 30" id="ic_gift">
    <path d="M5.625 5.625V0H9.375C12.4816 0 15 2.51841 15 5.625C15 2.51841 17.5184 0 20.625 0H24.375V5.625H30V11.25H0V5.625H5.625Z" fill="currentColor"></path>
    <path d="M1.875 15H13.125V28.125H1.875V15Z" fill="currentColor"></path>
    <path d="M28.125 15H16.875V28.125H28.125V15Z" fill="currentColor"></path>
  </symbol>
  <symbol fill="none" xmlns="http://www.w3.org/2000/svg" viewBox="0 0 30 30" id="ic_download">
    <path d="M14.2361 18.3713C14.4377 18.6369 14.7091 18.7834 15.0003 18.7834C15.2916 18.7834 15.563 18.6369 15.7635 18.3726L21.3137 11.3484C21.5197 11.0766 21.5769 10.8137 21.4748 10.608C21.3727 10.4023 21.1287 10.2891 20.7877 10.2891H18.6631C18.085 10.2891 17.6146 9.81892 17.6146 9.24072V2.55822C17.6146 1.87718 17.0608 1.32312 16.3799 1.32312H13.6209C12.94 1.32312 12.3861 1.87718 12.3861 2.55822V9.24078C12.3861 9.81898 11.9157 10.2891 11.3375 10.2891H9.21293C8.87209 10.2891 8.62816 10.4024 8.52597 10.6081C8.42384 10.8137 8.48103 11.0766 8.68828 11.3498L14.2361 18.3713Z" fill="currentColor"></path>
    <path d="M29.9961 21.1033L27.1812 11.7201H23.7775L22.1227 14.7016H24.2464L26.0566 21.0368H3.94336L5.7535 14.7016H7.87729L6.22248 11.7201H2.81877L0 21.1301V27.186C0 28.0081 0.66873 28.6768 1.49068 28.6768H28.5093C29.3313 28.6768 30 28.008 30 27.186V23.9252L29.9961 21.1033Z" fill="currentColor"></path>
  </symbol>
  <symbol fill="none" xmlns="http://www.w3.org/2000/svg" viewBox="0 0 28 28" id="ic_eye">
    <path d="M14 17.5C15.933 17.5 17.5 15.933 17.5 14C17.5 12.0669 15.933 10.5 14 10.5C12.9431 10.5 11.9957 10.9685 11.3539 11.7091C11.4534 11.6815 11.5583 11.6667 11.6667 11.6667C12.311 11.6667 12.8333 12.189 12.8333 12.8333C12.8333 13.4777 12.311 14 11.6667 14C11.1716 14 10.7486 13.6917 10.5791 13.2565C10.5273 13.4961 10.5 13.7448 10.5 14C10.5 15.933 12.0669 17.5 14 17.5Z" fill="currentColor"></path>
    <path fill-rule="evenodd" clip-rule="evenodd" d="M5.45877 12.3542C6.58386 10.6551 9.49299 7 14 7C18.5071 7 21.4161 10.6551 22.5413 12.3542L22.5912 12.4291C22.8373 12.7972 23.1659 13.2886 23.1659 14C23.1659 14.7114 22.8373 15.2028 22.5912 15.5709L22.5413 15.6458C21.4161 17.3449 18.5071 21 14 21C9.49299 21 6.58386 17.3449 5.45877 15.6458L5.40883 15.5709C5.16272 15.2028 4.83414 14.7114 4.83414 14C4.83414 13.2886 5.16272 12.7972 5.40883 12.4291L5.45877 12.3542ZM14 9.33333C13.5501 9.33333 13.1182 9.38571 12.7051 9.48026C13.1336 9.38604 13.5669 9.33333 14 9.33333ZM14 18.6667C16.5773 18.6667 18.6667 16.5773 18.6667 14C18.6667 11.4227 16.5773 9.33333 14 9.33333C11.4227 9.33333 9.33333 11.4227 9.33333 14C9.33333 16.5773 11.4227 18.6667 14 18.6667ZM14 18.6667C14.4499 18.6667 14.8818 18.6143 15.295 18.5197C14.8664 18.6139 14.4331 18.6667 14 18.6667Z" fill="currentColor"></path>
  </symbol>
  <symbol fill="none" xmlns="http://www.w3.org/2000/svg" viewBox="0 0 14 14" id="ic_link_arrow">
    <path d="M4.08594 4.08268L9.91927 9.91602M9.91927 9.91602H4.66927M9.91927 9.91602V4.66602" stroke="currentColor" stroke-width="1.5" stroke-linecap="round" stroke-linejoin="round"></path>
  </symbol>
  <symbol fill="none" xmlns="http://www.w3.org/2000/svg" viewBox="0 0 42 42" id="ic_location">
    <path d="M21 0C12.3021 0 5.25 7.05206 5.25 15.75C5.25 19.175 6.37284 22.3178 8.23922 24.8916C8.27269 24.9533 8.27794 25.0222 8.316 25.0812L18.816 40.8312C19.3029 41.5616 20.1233 42 21 42C21.8767 42 22.6971 41.5616 23.184 40.8312L33.684 25.0812C33.7227 25.0222 33.7273 24.9533 33.7608 24.8916C35.6272 22.3178 36.75 19.175 36.75 15.75C36.75 7.05206 29.6979 0 21 0ZM21 21C18.1007 21 15.75 18.6493 15.75 15.75C15.75 12.8507 18.1007 10.5 21 10.5C23.8993 10.5 26.25 12.8507 26.25 15.75C26.25 18.6493 23.8993 21 21 21Z" fill="currentColor"></path>
  </symbol>
  <symbol fill="none" xmlns="http://www.w3.org/2000/svg" viewBox="0 0 24 24" id="ic_instagram">
    <path fill-rule="evenodd" clip-rule="evenodd" d="M1 5.4C1 2.96995 2.96995 1 5.4 1H18.6C21.03 1 23 2.96995 23 5.4V18.6C23 21.03 21.03 23 18.6 23H5.4C2.96995 23 1 21.03 1 18.6V5.4ZM5.4 3.2C4.18497 3.2 3.2 4.18497 3.2 5.4V18.6C3.2 19.8151 4.18497 20.8 5.4 20.8H18.6C19.8151 20.8 20.8 19.8151 20.8 18.6V5.4C20.8 4.18497 19.8151 3.2 18.6 3.2H5.4ZM12 8.7C10.1774 8.7 8.7 10.1774 8.7 12C8.7 13.8226 10.1774 15.3 12 15.3C13.8226 15.3 15.3 13.8226 15.3 12C15.3 10.1774 13.8226 8.7 12 8.7ZM6.5 12C6.5 8.96244 8.96244 6.5 12 6.5C15.0375 6.5 17.5 8.96244 17.5 12C17.5 15.0375 15.0375 17.5 12 17.5C8.96244 17.5 6.5 15.0375 6.5 12ZM18.05 7.6C18.9612 7.6 19.7 6.86127 19.7 5.95C19.7 5.03873 18.9612 4.3 18.05 4.3C17.1388 4.3 16.4 5.03873 16.4 5.95C16.4 6.86127 17.1388 7.6 18.05 7.6Z" fill="currentColor"></path>
  </symbol>
  <symbol fill="none" xmlns="http://www.w3.org/2000/svg" viewBox="0 0 26 26" id="ic_lock">
    <path d="M12.999 2.16699C15.3921 2.16699 17.3328 4.10691 17.333 6.5V6.75C17.333 7.3483 16.8473 7.83398 16.249 7.83398C15.6508 7.83381 15.166 7.34819 15.166 6.75V6.5C15.1658 5.30353 14.1956 4.33398 12.999 4.33398C11.8026 4.33416 10.8332 5.30364 10.833 6.5V8.98242C11.5195 8.77812 12.2462 8.66702 12.999 8.66699C17.1871 8.66699 20.5828 12.062 20.583 16.25C20.583 20.4382 17.1872 23.834 12.999 23.834C8.81102 23.8338 5.41602 20.4381 5.41602 16.25C5.41612 13.6598 6.71548 11.3738 8.69727 10.0059C8.67742 9.92386 8.66602 9.8381 8.66602 9.75V6.5C8.66619 4.10702 10.606 2.16717 12.999 2.16699ZM12.999 14.084C12.4008 14.0842 11.916 14.5688 11.916 15.167V17.334C11.9162 17.9321 12.401 18.4168 12.999 18.417C13.5972 18.417 14.0828 17.9322 14.083 17.334V15.167C14.083 14.5687 13.5973 14.084 12.999 14.084Z" fill="currentColor"></path>
  </symbol>
  <symbol fill="none" xmlns="http://www.w3.org/2000/svg" viewBox="0 0 16 2" id="ic_minus">
    <rect width="16" height="2" rx="1" fill="currentColor"></rect>
  </symbol>
  <symbol fill="none" xmlns="http://www.w3.org/2000/svg" viewBox="0 0 16 16" id="ic_plus">
    <rect y="7" width="16" height="2" rx="1" fill="currentColor"></rect>
    <rect x="7" y="16" width="16" height="2" rx="1" transform="rotate(-90 7 16)" fill="currentColor"></rect>
  </symbol>
  <symbol fill="none" xmlns="http://www.w3.org/2000/svg" viewBox="0 0 150 150" id="ic_success">
    <circle cx="75" cy="75" r="75" fill="white"></circle>
    <path fill-rule="evenodd" clip-rule="evenodd" d="M0 75C0 33.5786 33.5786 0 75 0C116.421 0 150 33.5786 150 75C150 116.421 116.421 150 75 150C33.5786 150 0 116.421 0 75ZM102.803 54.6967C105.732 57.6256 105.732 62.3745 102.803 65.3032L75.1822 92.9242C70.9395 97.167 64.0605 97.167 59.8176 92.9242L47.1967 80.3032C44.2678 77.3745 44.2678 72.6255 47.1967 69.6967C50.1256 66.768 54.8743 66.768 57.8033 69.6967L67.5 79.3935L92.1967 54.6967C95.1255 51.7678 99.8745 51.7678 102.803 54.6967Z" fill="currentColor"></path>
  </symbol>
  <symbol fill="none" xmlns="http://www.w3.org/2000/svg" viewBox="0 0 24 24" id="ic_tg">
    <path d="M3.34267 10.8316C9.50099 8.1224 17.4704 4.81931 18.5704 4.36214C21.456 3.16556 22.3414 3.39488 21.9 6.0448C21.5829 7.94943 20.6681 14.2552 19.939 18.1801C19.5063 20.5076 18.5356 20.7835 17.0093 19.7766C16.2752 19.2919 12.5704 16.8419 11.7663 16.2667C11.0322 15.7424 10.0199 15.1118 11.2895 13.8696C11.7413 13.4271 14.7028 10.5993 17.0102 8.39827C17.3126 8.10917 16.9328 7.63436 16.5839 7.86613C13.4739 9.92853 9.16191 12.7911 8.61311 13.164C7.78403 13.727 6.98778 13.9852 5.55845 13.5746C4.47849 13.2645 3.42352 12.8945 3.0129 12.7534C1.43167 12.2105 1.80701 11.5073 3.34267 10.8316Z" fill="currentColor"></path>
  </symbol>
</svg>