<svg width="446" height="112" viewBox="0 0 446 112" fill="none" xmlns="http://www.w3.org/2000/svg">
<path d="M3 99C3 99 55.5799 30.6245 105.207 18.0785C167.635 2.29628 198.658 98.8752 263.116 99C337.596 99.1442 443 3 443 3" stroke="url(#paint0_linear_2001_364)" stroke-width="6"/>
<circle cx="342" cy="72" r="38" fill="#2B2A29" stroke="white" stroke-width="4"/>
<circle cx="315" cy="45" r="17" fill="#FF5A3D"/>
<path d="M314.216 49.1051V40.6676H315.648V49.1051H314.216ZM310.713 45.6023V44.1705H319.151V45.6023H310.713Z" fill="white"/>
<path d="M349.834 70.959V70.234H350.404V69.4162H349.551V68.478H348.698V66.4562H349.388V65.7688H347.351L345.778 61.103V59.4749H345.166L342.208 50.3464H342.113V49.935C342.329 49.8873 342.484 49.6942 342.484 49.4634C342.484 49.2276 342.329 49.0369 342.113 48.9918V47H341.902V48.9893C341.682 49.0394 341.521 49.2301 341.521 49.4634C341.521 49.6967 341.679 49.8898 341.9 49.935V50.3464H341.8L338.837 59.4749H338.237V61.1004L336.647 65.7663H334.62V66.4511H335.31V68.4755H334.455V69.4112H333.599V70.229H334.174V70.9539H334.455V76.1516H333.597V76.9569H334.171V77.6868H334.452V97H349.556V77.6868H349.834V76.9569H350.404V76.1516H349.551V70.959H349.834ZM337.349 67.304C337.756 67.304 338.087 67.6377 338.087 68.039C338.087 68.0917 338.082 68.1268 338.077 68.177V69.6997H336.619V68.1745C336.609 68.1268 336.607 68.0867 336.607 68.039C336.607 67.6377 336.941 67.304 337.349 67.304ZM337.016 82.1194V83.331H335.857V82.1194C335.847 82.0768 335.847 82.0517 335.847 82.0065C335.847 81.6879 336.108 81.4245 336.429 81.4245C336.76 81.4245 337.021 81.6879 337.021 82.0065C337.026 82.0517 337.021 82.0793 337.016 82.1194ZM338.513 73.2467V75.4768H336.381V73.2467C336.371 73.184 336.361 73.1188 336.361 73.0561C336.361 72.454 336.845 71.9674 337.45 71.9674C338.044 71.9674 338.536 72.449 338.536 73.0561C338.536 73.1188 338.526 73.184 338.513 73.2467ZM339.773 68.039C339.773 67.6377 340.104 67.304 340.51 67.304C340.924 67.304 341.248 67.6377 341.248 68.039C341.248 68.0917 341.248 68.1268 341.24 68.177V69.6997H339.783V68.1745C339.778 68.1268 339.773 68.0867 339.773 68.039ZM342.673 82.1194V83.331H341.519V82.1194C341.509 82.0768 341.504 82.0517 341.504 82.0065C341.504 81.6879 341.764 81.4245 342.093 81.4245C342.414 81.4245 342.678 81.6879 342.678 82.0065C342.683 82.0517 342.683 82.0793 342.673 82.1194ZM343.162 73.2467V75.4768H341.029V73.2467C341.019 73.184 341.014 73.1188 341.014 73.0561C341.014 72.454 341.494 71.9674 342.098 71.9674C342.693 71.9674 343.182 72.449 343.182 73.0561C343.179 73.1188 343.169 73.184 343.162 73.2467ZM344.406 68.1745V69.6972H342.951V68.1745C342.943 68.1243 342.938 68.0892 342.938 68.0365C342.938 67.6352 343.27 67.3015 343.681 67.3015C344.087 67.3015 344.421 67.6352 344.421 68.0365C344.421 68.0867 344.411 68.1268 344.406 68.1745ZM346.842 67.304C347.253 67.304 347.577 67.6377 347.577 68.039C347.577 68.0917 347.572 68.1268 347.572 68.177V69.6997H346.122V68.1745C346.107 68.1243 346.107 68.0892 346.107 68.0365C346.107 67.6377 346.435 67.304 346.842 67.304ZM345.66 73.0561C345.66 72.454 346.134 71.9674 346.744 71.9674C347.341 71.9674 347.828 72.449 347.828 73.0561C347.828 73.1188 347.818 73.184 347.807 73.2467V75.4768H345.675V73.2467C345.67 73.184 345.66 73.1188 345.66 73.0561ZM348.332 82.1194V83.331H347.18V82.1194C347.165 82.0768 347.165 82.0517 347.165 82.0065C347.165 81.6879 347.429 81.4245 347.752 81.4245C348.076 81.4245 348.339 81.6879 348.339 82.0065C348.342 82.0517 348.337 82.0793 348.332 82.1194Z" fill="white"/>
<circle cx="79" cy="35" r="27" fill="#ADACAB" stroke="white" stroke-width="4"/>
<path d="M79 23C74.0297 23 70 27.0297 70 32C70 33.9571 70.6416 35.753 71.7081 37.2238C71.7273 37.259 71.7303 37.2984 71.752 37.3321L77.752 46.3321C78.0303 46.7495 78.499 47 79 47C79.501 47 79.9697 46.7495 80.248 46.3321L86.248 37.3321C86.2701 37.2984 86.2727 37.259 86.2919 37.2238C87.3584 35.753 88 33.9571 88 32C88 27.0297 83.9703 23 79 23ZM79 35C77.3432 35 76 33.6567 76 32C76 30.3432 77.3432 29 79 29C80.6567 29 82 30.3432 82 32C82 33.6567 80.6567 35 79 35Z" fill="white"/>
<defs>
<linearGradient id="paint0_linear_2001_364" x1="3" y1="51" x2="443" y2="51" gradientUnits="userSpaceOnUse">
<stop stop-color="#2B2A29" stop-opacity="0"/>
<stop offset="0.25" stop-color="#2B2A29"/>
<stop offset="0.75" stop-color="#2B2A29"/>
<stop offset="1" stop-color="#2B2A29" stop-opacity="0"/>
</linearGradient>
</defs>
</svg>
